<svg version="1.2" xmlns="http://www.w3.org/2000/svg" xmlns:xlink="http://www.w3.org/1999/xlink" overflow="visible" preserveAspectRatio="none" viewBox="0 0 256 256" width="26" height="27"><g> <path fill="#343434" d="M128,128L128,128L128,128L128,128L128,128L128,128L128,128L128,128L128,128L128,128L128,128L128,128L128,128 L128,128L128,128L128,128L128,128L128,128L128,128L128,128L128,128L128,128L128,128L128,128L128,128L128,128L128,128L128,128 L128,128L128,128L128,128L128,128L128,128L128,128L128,128L128,128L128,128L128,128L128,128L128,128L128,128L128,128L128,128 L128,128L128,128L128,128L128,128L128,128L128,128L128,128L128,128L128,128L128,128L128,128L128,128L128,128L128,128L128,128 L128,128L128,128L128,128L128,128L128,128L128,128z M128,128L128,128L128,128L128,128L128,128L128,128L128,128L128,128L128,128z M128,128L128,128L128,128L128,128L128,128L128,128L128,128L128,128L128,128z" style="fill: rgb(153, 153, 153);" vector-effect="non-scaling-stroke"/> <path fill="#343434" d="M250.561,138.568c1.473,0,2.776,0.51,3.797,1.529c1.076,1.021,1.643,2.324,1.643,3.882v85.281 c0,3.599-1.812,5.412-5.439,5.412H5.412c-3.599,0-5.412-1.813-5.412-5.412v-85.281c0-1.474,0.539-2.748,1.587-3.825 c1.077-1.048,2.352-1.586,3.825-1.586h31.817c1.473,0,2.748,0.51,3.825,1.529c1.048,1.021,1.586,2.324,1.586,3.882v48.053h170.69 v-48.053c0-1.474,0.567-2.748,1.587-3.825c1.076-1.048,2.38-1.586,3.854-1.586H250.561L250.561,138.568z M205.965,94.681 c2.153,2.125,2.833,3.91,2.153,5.355c-0.681,1.417-2.493,2.153-5.327,2.153h-42.669v69.301c0,3.061-1.02,5.61-3.116,7.707 c-2.082,2.097-4.633,3.116-7.692,3.116h-42.641c-3.06,0-5.582-1.02-7.565-3.116c-2.011-2.097-3.003-4.646-3.003-7.707v-69.301 H53.464c-3.031,0-4.845-0.737-5.411-2.153c-0.539-1.445,0.198-3.23,2.238-5.355l69.981-70.151c2.125-2.125,4.703-3.202,7.707-3.202 c3.032,0,5.582,1.077,7.707,3.202L205.965,94.681z" style="fill: rgb(153, 153, 153);" vector-effect="non-scaling-stroke"/></g></svg>